<?xml version="1.0" encoding="UTF-8"?><svg id="Layer_1" xmlns="http://www.w3.org/2000/svg" viewBox="0 0 48 48"><defs><style>.cls-1{fill:#0f1b2c;}</style></defs><g><path class="cls-1" d="M2.93,23.36c-.31-.18-.53-.44-.66-.77s-.19-.72-.19-1.19V10.67c0-.47,.06-.87,.19-1.2,.13-.33,.35-.59,.66-.77,.31-.18,.72-.27,1.23-.27s.92,.09,1.22,.27c.3,.18,.52,.43,.66,.77,.13,.33,.2,.73,.2,1.2v4.38c0,.08-.03,.16-.08,.21-.06,.06-.13,.09-.21,.09h-.57c-.11,0-.2-.03-.24-.09-.05-.06-.07-.13-.07-.21v-4.43c0-.38-.06-.66-.19-.84-.13-.18-.36-.27-.7-.27s-.58,.09-.7,.27c-.13,.18-.19,.46-.19,.84v10.83c0,.37,.06,.64,.19,.81s.36,.26,.7,.26,.57-.08,.7-.26,.19-.44,.19-.81v-4.45c0-.08,.02-.16,.07-.21s.13-.09,.24-.09h.57c.09,0,.16,.03,.21,.09,.06,.06,.08,.13,.08,.21v4.38c0,.47-.07,.87-.2,1.19-.14,.33-.36,.58-.66,.77s-.71,.28-1.22,.28-.92-.09-1.23-.28Z"/><path class="cls-1" d="M7.57,23.4c-.06-.06-.08-.13-.08-.21V10.59c0-.1,.03-.17,.08-.22,.06-.05,.14-.07,.26-.07h.53c.1,0,.18,.03,.23,.07,.06,.05,.08,.12,.08,.22v.89c0,1.46-.06,2.94-.17,4.45h.17v7.26c0,.08-.03,.16-.08,.21-.06,.06-.14,.08-.23,.08h-.53c-.11,0-.2-.03-.26-.08Zm3.11,0c-.06-.06-.09-.13-.09-.21v-7.19c0-.27-.07-.48-.2-.62-.14-.14-.32-.21-.56-.21-.33,0-.6,.13-.82,.38-.22,.26-.33,.65-.33,1.17v.23h-.19v-.28c0-.87,.17-1.51,.52-1.94,.35-.43,.78-.64,1.31-.64,.43,0,.77,.14,1.03,.43,.26,.28,.39,.71,.39,1.28v7.39c0,.08-.02,.16-.07,.21-.05,.06-.13,.08-.24,.08h-.53c-.08,0-.16-.03-.21-.08Z"/><path class="cls-1" d="M13.14,20.12c-.05-.06-.07-.13-.07-.21v-3.53l-.11-1.77c-.01-.1,0-.18,.06-.23,.06-.06,.13-.08,.23-.08h.49c.09,0,.16,.02,.21,.07s.09,.12,.09,.22v.64h.17v4.68c0,.08-.03,.16-.08,.21-.06,.06-.13,.08-.21,.08h-.53c-.11,0-.2-.03-.24-.08Zm1.4-5.37c.16-.15,.34-.27,.54-.36,.2-.09,.37-.14,.51-.14,.08,0,.15,.02,.2,.07,.05,.05,.07,.12,.07,.2v.53c0,.1-.03,.17-.09,.22s-.13,.07-.23,.07h-1.43v-.09c.11-.2,.25-.37,.42-.52Z"/><path class="cls-1" d="M16.64,12.78c-.06-.06-.08-.13-.08-.21v-.87c0-.1,.03-.17,.08-.22,.06-.05,.13-.07,.21-.07h.57c.11,0,.19,.02,.23,.07,.04,.05,.06,.12,.06,.22v.87c0,.08-.02,.16-.06,.21-.04,.06-.12,.09-.23,.09h-.57c-.09,0-.16-.03-.21-.09Zm0,7.34c-.06-.06-.08-.13-.08-.21v-5.32c0-.11,.03-.19,.08-.23,.06-.04,.13-.06,.21-.06h.57c.1,0,.17,.02,.22,.06,.05,.04,.07,.12,.07,.23v5.32c0,.08-.02,.16-.07,.21s-.12,.08-.22,.08h-.57c-.09,0-.16-.03-.21-.08Z"/><path class="cls-1" d="M19.35,23.2c-.33-.32-.5-.8-.5-1.46v-1.17c0-.1,.03-.17,.08-.22s.13-.07,.21-.07h.51c.1,0,.17,.02,.22,.07,.05,.05,.07,.12,.07,.22v1.19c0,.34,.07,.59,.22,.76s.38,.24,.69,.24,.54-.08,.69-.24,.22-.42,.22-.76v-1.11c0-.31-.06-.55-.18-.7-.12-.16-.35-.31-.69-.47l-.75-.3c-.45-.2-.79-.44-1-.71-.21-.28-.32-.67-.32-1.18v-1.23c0-.6,.18-1.06,.55-1.4,.37-.34,.88-.51,1.53-.51s1.13,.17,1.49,.51c.35,.34,.53,.81,.53,1.4v1.09c0,.08-.03,.16-.09,.21-.06,.06-.14,.09-.23,.09h-.49c-.1,0-.18-.03-.23-.09-.06-.06-.08-.13-.08-.21v-1.09c0-.34-.07-.59-.21-.76-.14-.16-.37-.24-.68-.24s-.56,.08-.7,.24c-.14,.16-.21,.42-.21,.76v1.04c0,.31,.06,.55,.18,.7,.12,.16,.36,.31,.71,.47l.72,.3c.47,.21,.81,.46,1.01,.73s.31,.66,.31,1.16v1.3c0,.4-.07,.74-.22,1.02-.15,.28-.38,.5-.68,.66-.31,.16-.69,.23-1.16,.23-.7,0-1.21-.16-1.54-.48Z"/><path class="cls-1" d="M24.83,23.19c-.26-.3-.38-.76-.38-1.38v-6.47h-.62c-.08,0-.16-.03-.21-.08-.06-.06-.09-.14-.09-.23v-.43c0-.11,.03-.19,.09-.23,.06-.04,.13-.06,.21-.06,.26,0,.44-.02,.54-.07,.11-.05,.19-.15,.26-.3,.06-.15,.12-.41,.18-.78,.03-.11,.07-.2,.14-.26,.06-.06,.14-.09,.22-.09h.15c.1,0,.18,.02,.23,.07,.06,.05,.09,.13,.09,.24v1.17h1.75c.1,0,.18,.02,.23,.06,.06,.04,.09,.12,.09,.23v.43c0,.1-.03,.18-.09,.23s-.14,.08-.23,.08h-1.75v6.56c0,.27,.05,.46,.15,.56s.24,.16,.43,.16c.21,0,.37-.05,.47-.16s.15-.29,.15-.56v-2.06c0-.1,.03-.17,.09-.22,.06-.05,.13-.07,.21-.07h.21c.11,0,.2,.02,.24,.07,.05,.05,.07,.12,.07,.22v2c0,.61-.12,1.06-.37,1.36s-.65,.45-1.2,.45c-.58,0-1-.15-1.26-.45Z"/><path class="cls-1" d="M28.77,12.78c-.06-.06-.08-.13-.08-.21v-.87c0-.1,.03-.17,.08-.22,.06-.05,.13-.07,.21-.07h.57c.11,0,.19,.02,.23,.07,.04,.05,.06,.12,.06,.22v.87c0,.08-.02,.16-.06,.21-.04,.06-.12,.09-.23,.09h-.57c-.09,0-.16-.03-.21-.09Zm0,10.62c-.06-.06-.08-.13-.08-.21V14.59c0-.11,.03-.19,.08-.23,.06-.04,.13-.06,.21-.06h.57c.1,0,.17,.02,.22,.06,.05,.04,.07,.12,.07,.23v8.6c0,.08-.02,.16-.07,.21s-.12,.08-.22,.08h-.57c-.09,0-.16-.03-.21-.08Z"/><path class="cls-1" d="M31.4,23.26c-.28-.25-.42-.67-.42-1.27v-2.55c0-.3,.08-.52,.24-.66,.16-.14,.41-.26,.73-.36l1.94-.53v-1.79c0-.37-.06-.64-.19-.81-.13-.17-.36-.26-.7-.26-.31,0-.54,.09-.67,.27-.14,.18-.2,.46-.2,.84v.96c0,.08-.03,.16-.07,.21-.05,.06-.12,.09-.22,.09h-.51c-.09,0-.16-.03-.21-.09-.06-.06-.08-.13-.08-.21v-.98c0-.41,.07-.77,.22-1.06s.37-.53,.67-.7,.67-.26,1.13-.26c.71,0,1.22,.18,1.53,.53,.31,.35,.47,.87,.47,1.53v5.09l.11,1.92c.01,.1,0,.18-.06,.23-.06,.06-.14,.08-.23,.08h-.45c-.1,0-.18-.03-.23-.08s-.08-.13-.08-.21v-1.26h-.06c0,.48-.14,.89-.41,1.21-.28,.33-.65,.49-1.12,.49s-.82-.12-1.1-.37Zm2.27-1.03c.16-.27,.23-.6,.23-1v-2.51l-1.77,.51v2.58c0,.3,.06,.51,.18,.64,.12,.13,.32,.19,.59,.19,.35,0,.61-.13,.77-.4Z"/><path class="cls-1" d="M36.41,23.4c-.06-.06-.08-.13-.08-.21v-6.79l-.11-1.77c-.01-.13,0-.22,.05-.27,.05-.05,.13-.07,.24-.07h.47c.1,0,.17,.02,.22,.06,.05,.04,.07,.12,.07,.23v1.51h.19v7.09c0,.08-.02,.16-.07,.21s-.12,.08-.22,.08h-.53c-.1,0-.18-.03-.23-.08Zm3.07,0c-.06-.06-.09-.13-.09-.21v-7.19c0-.27-.06-.48-.19-.62-.13-.14-.32-.21-.57-.21-.33,0-.6,.13-.82,.38-.22,.26-.33,.65-.33,1.17v.23h-.15v-.28c0-.87,.17-1.51,.5-1.94,.33-.43,.77-.64,1.31-.64,.41,0,.75,.14,1.02,.43,.27,.28,.4,.71,.4,1.28v7.39c0,.08-.02,.16-.07,.21-.05,.06-.13,.08-.24,.08h-.55c-.08,0-.16-.03-.21-.08Z"/><path class="cls-1" d="M42.3,23.13c-.37-.35-.55-.88-.55-1.61v-5.26c0-.72,.18-1.26,.55-1.61,.37-.35,.88-.52,1.53-.52s1.16,.17,1.53,.52,.55,.88,.55,1.61v5.26c0,.72-.18,1.26-.55,1.61s-.88,.52-1.53,.52-1.16-.17-1.53-.52Zm2.21-.73c.14-.17,.21-.45,.21-.83v-5.3c0-.4-.07-.68-.21-.85-.14-.17-.37-.26-.68-.26s-.56,.09-.7,.26c-.14,.17-.21,.45-.21,.85v5.3c0,.38,.07,.66,.21,.83,.14,.17,.37,.26,.68,.26s.56-.08,.7-.26Z"/></g><g><path class="cls-1" d="M12.83,34.61c-.06-.06-.08-.13-.08-.21v-12.74c0-.08,.03-.16,.08-.21s.13-.09,.23-.09h1.79c.75,0,1.29,.2,1.61,.6,.32,.4,.48,.94,.48,1.64v8.87c0,.7-.16,1.24-.48,1.64s-.85,.6-1.61,.6h-1.79c-.1,0-.18-.03-.23-.08Zm2.73-1.27c.13-.18,.2-.46,.2-.84v-8.96c0-.38-.07-.66-.2-.84-.14-.18-.37-.27-.71-.27h-.92v11.17h.92c.34,0,.58-.09,.71-.27Z"/><path class="cls-1" d="M18.72,34.32c-.37-.35-.55-.87-.55-1.56v-5.36c0-.7,.18-1.21,.55-1.55,.37-.34,.87-.51,1.51-.51s1.18,.17,1.54,.5c.36,.33,.54,.86,.54,1.56v1.92c0,.11-.02,.21-.07,.3-.05,.08-.12,.13-.22,.13l-2.83,.89v-.92l1.98-.7v-1.68c0-.37-.07-.64-.22-.82s-.39-.27-.71-.27-.54,.09-.68,.27c-.14,.18-.21,.45-.21,.82v5.51c0,.38,.07,.66,.21,.82,.14,.16,.37,.24,.68,.24s.56-.08,.71-.24c.15-.16,.22-.44,.22-.82v-1.17c0-.1,.02-.17,.07-.22,.05-.05,.12-.07,.22-.07h.55c.08,0,.16,.02,.21,.07,.06,.05,.09,.12,.09,.22v1.19c0,.65-.18,1.15-.55,1.48s-.88,.5-1.53,.5-1.14-.17-1.51-.52Z"/><path class="cls-1" d="M23.82,34.4c-.33-.32-.5-.8-.5-1.46v-1.17c0-.1,.03-.17,.08-.22s.13-.07,.21-.07h.51c.1,0,.17,.02,.22,.07,.05,.05,.07,.12,.07,.22v1.19c0,.34,.07,.59,.22,.76s.38,.24,.69,.24,.54-.08,.69-.24,.22-.42,.22-.76v-1.11c0-.31-.06-.55-.18-.7-.12-.16-.35-.31-.69-.47l-.75-.3c-.45-.2-.79-.44-1-.71-.21-.28-.32-.67-.32-1.18v-1.23c0-.6,.18-1.06,.55-1.4,.37-.34,.88-.51,1.53-.51s1.13,.17,1.49,.51c.35,.34,.53,.81,.53,1.4v1.09c0,.08-.03,.16-.09,.21-.06,.06-.14,.09-.23,.09h-.49c-.1,0-.18-.03-.23-.09-.06-.06-.08-.13-.08-.21v-1.09c0-.34-.07-.59-.21-.76-.14-.16-.37-.24-.68-.24s-.56,.08-.7,.24c-.14,.16-.21,.42-.21,.76v1.04c0,.31,.06,.55,.18,.7,.12,.16,.36,.31,.71,.47l.72,.3c.47,.21,.81,.46,1.01,.73s.31,.66,.31,1.16v1.3c0,.4-.07,.74-.22,1.02-.15,.28-.38,.5-.68,.66-.31,.16-.69,.23-1.16,.23-.7,0-1.21-.16-1.54-.48Z"/><path class="cls-1" d="M28.64,26.88c-.06-.06-.08-.13-.08-.21v-.87c0-.1,.03-.17,.08-.22,.06-.05,.13-.07,.21-.07h.57c.11,0,.19,.02,.23,.07,.04,.05,.06,.12,.06,.22v.87c0,.08-.02,.16-.06,.21-.04,.06-.12,.09-.23,.09h-.57c-.09,0-.16-.03-.21-.09Zm-17.98,7.92c-.06-.06-.08-.13-.08-.21v-.87c0-.1,.03-.17,.08-.22,.06-.05,.13-.07,.21-.07h.57c.11,0,.19,.02,.23,.07,.04,.05,.06,.12,.06,.22v.87c0,.08-.02,.16-.06,.21-.04,.06-.12,.09-.23,.09h-.57c-.09,0-.16-.03-.21-.09Zm17.98-.19c-.06-.06-.08-.13-.08-.21v-5.7c0-.11,.03-.19,.08-.23,.06-.04,.13-.06,.21-.06h.57c.1,0,.17,.02,.22,.06,.05,.04,.07,.12,.07,.23v5.7c0,.08-.02,.16-.07,.21s-.12,.08-.22,.08h-.57c-.09,0-.16-.03-.21-.08Z"/><path class="cls-1" d="M31.29,37.98c-.36-.32-.54-.78-.54-1.37v-1.26c0-.1,.02-.17,.07-.22,.05-.05,.12-.07,.22-.07h.57c.1,0,.17,.02,.22,.07,.05,.05,.07,.12,.07,.22v1.23c0,.3,.07,.53,.22,.69,.15,.16,.37,.24,.67,.24h.47c.33,0,.56-.07,.71-.22s.22-.38,.22-.69v-1.13c0-.27-.05-.46-.15-.59s-.3-.18-.6-.18h-1.13c-.4,0-.71-.1-.95-.29-.23-.19-.35-.49-.35-.88,0-.37,.12-.67,.36-.89s.59-.34,1.04-.34h.38v.28c-.33,0-.55,.05-.68,.16-.13,.11-.19,.24-.19,.39v.11c0,.16,.04,.26,.12,.31,.08,.05,.22,.07,.44,.07h1.19c.52,0,.93,.13,1.21,.38,.28,.26,.43,.68,.43,1.28v1.3c0,.6-.19,1.06-.56,1.38-.38,.33-.96,.49-1.76,.49s-1.37-.16-1.73-.48Zm.11-5.88c-.35-.33-.52-.82-.52-1.49v-3.09c0-.68,.18-1.19,.54-1.53,.36-.34,.86-.51,1.5-.51h2.34c.08,0,.16,.03,.21,.1,.06,.06,.09,.14,.09,.22v.28c0,.1-.03,.18-.09,.23s-.13,.08-.21,.08h-1.13v.08c.31,.07,.54,.23,.67,.47,.13,.24,.2,.55,.2,.94v2.81c0,.64-.17,1.11-.52,1.43-.35,.31-.86,.47-1.52,.47s-1.22-.16-1.56-.49Zm2.25-.63c.14-.16,.21-.44,.21-.82v-3.07c0-.41-.07-.71-.21-.9-.14-.19-.37-.29-.68-.29s-.56,.08-.69,.26-.2,.45-.2,.85v3.15c0,.38,.07,.66,.2,.82,.14,.16,.37,.24,.69,.24s.54-.08,.68-.24Z"/><path class="cls-1" d="M36.47,34.61c-.06-.06-.08-.13-.08-.21v-6.79l-.11-1.77c-.01-.13,0-.22,.05-.27,.05-.05,.13-.07,.24-.07h.47c.1,0,.17,.02,.22,.06,.05,.04,.07,.12,.07,.23v1.51h.19v7.09c0,.08-.02,.16-.07,.21s-.12,.08-.22,.08h-.53c-.1,0-.18-.03-.23-.08Zm3.07,0c-.06-.06-.09-.13-.09-.21v-7.19c0-.27-.06-.48-.19-.62-.13-.14-.32-.21-.57-.21-.33,0-.6,.13-.82,.38-.22,.26-.33,.65-.33,1.17v.23h-.15v-.28c0-.87,.17-1.51,.5-1.94,.33-.43,.77-.64,1.31-.64,.41,0,.75,.14,1.02,.43,.27,.28,.4,.71,.4,1.28v7.39c0,.08-.02,.16-.07,.21-.05,.06-.13,.08-.24,.08h-.55c-.08,0-.16-.03-.21-.08Z"/><path class="cls-1" d="M42.25,34.4c-.33-.32-.5-.8-.5-1.46v-1.17c0-.1,.03-.17,.08-.22s.13-.07,.21-.07h.51c.1,0,.17,.02,.22,.07,.05,.05,.07,.12,.07,.22v1.19c0,.34,.07,.59,.22,.76s.38,.24,.69,.24,.54-.08,.69-.24,.22-.42,.22-.76v-1.11c0-.31-.06-.55-.18-.7-.12-.16-.35-.31-.69-.47l-.75-.3c-.45-.2-.79-.44-1-.71-.21-.28-.32-.67-.32-1.18v-1.23c0-.6,.18-1.06,.55-1.4,.37-.34,.88-.51,1.53-.51s1.13,.17,1.49,.51c.35,.34,.53,.81,.53,1.4v1.09c0,.08-.03,.16-.09,.21-.06,.06-.14,.09-.23,.09h-.49c-.1,0-.18-.03-.23-.09-.06-.06-.08-.13-.08-.21v-1.09c0-.34-.07-.59-.21-.76-.14-.16-.37-.24-.68-.24s-.56,.08-.7,.24c-.14,.16-.21,.42-.21,.76v1.04c0,.31,.06,.55,.18,.7,.12,.16,.36,.31,.71,.47l.72,.3c.47,.21,.81,.46,1.01,.73s.31,.66,.31,1.16v1.3c0,.4-.07,.74-.22,1.02-.15,.28-.38,.5-.68,.66-.31,.16-.69,.23-1.16,.23-.7,0-1.21-.16-1.54-.48Z"/></g></svg>